<?xml version="1.0" encoding="UTF-8"?>
<svg version="1.1" xmlns="http://www.w3.org/2000/svg" width="400" height="400">
<path d="M0 0 C51.15 0 102.3 0 155 0 C159.95 8.58 164.9 17.16 170 26 C175.20505451 34.92302898 175.20505451 34.92302898 180.4140625 43.84375 C186.65217576 54.53765845 192.82306636 65.27067933 199 76 C199.66 76 200.32 76 201 76 C201.32049316 75.42894531 201.64098633 74.85789062 201.97119141 74.26953125 C208.75012729 62.20316925 215.60504511 50.18642184 222.59912109 38.2434082 C225.79970297 32.77637918 228.98641368 27.30189688 232.1484375 21.8125 C232.66426895 20.91704216 232.66426895 20.91704216 233.19052124 20.00349426 C234.86287815 17.09922164 236.53347503 14.19395289 238.20263672 11.2878418 C238.80092285 10.24797119 239.39920898 9.20810059 240.015625 8.13671875 C240.54446289 7.21592529 241.07330078 6.29513184 241.61816406 5.34643555 C242.68824811 3.52937233 243.83027964 1.75458054 245 0 C247.6667881 -0.36914349 247.6667881 -0.36914349 251.12490845 -0.36076355 C252.43185165 -0.36488754 253.73879486 -0.36901154 255.08534241 -0.3732605 C256.54208578 -0.36264229 257.99882709 -0.35173785 259.45556641 -0.34057617 C260.98293542 -0.33973035 262.51030565 -0.34020416 264.03767395 -0.34190369 C268.19248781 -0.34276682 272.3470435 -0.32508981 276.5017972 -0.30418181 C280.8406523 -0.28546787 285.17951287 -0.28366875 289.5184021 -0.28010559 C297.73843878 -0.27076955 305.95835622 -0.24613475 314.17834032 -0.21605712 C323.53490287 -0.18256153 332.89147103 -0.1660393 342.24807858 -0.15097082 C361.49878674 -0.1195865 380.7493838 -0.0667958 400 0 C398.7282356 3.93195472 397.38267032 7.36655837 395.26953125 10.921875 C394.72167969 11.85128906 394.17382812 12.78070313 393.609375 13.73828125 C392.71992187 15.22908203 392.71992187 15.22908203 391.8125 16.75 C390.53707902 18.91105633 389.26236327 21.072529 387.98828125 23.234375 C386.99948975 24.90790039 386.99948975 24.90790039 385.99072266 26.61523438 C382.79082706 32.05592025 379.64631769 37.52821474 376.5 43 C371.12163189 52.33907421 365.70740261 61.65640817 360.26953125 70.9609375 C355.98777878 78.29283723 351.73789061 85.64267238 347.5 93 C342.1208592 102.33863207 336.70740553 111.65640317 331.26953125 120.9609375 C326.98777878 128.29283723 322.73789061 135.64267238 318.5 143 C313.1208592 152.33863207 307.70740553 161.65640317 302.26953125 170.9609375 C297.98777878 178.29283723 293.73789061 185.64267238 289.5 193 C284.1208592 202.33863207 278.70740553 211.65640317 273.26953125 220.9609375 C268.98777878 228.29283723 264.73789061 235.64267238 260.5 243 C255.69148156 251.34798459 250.86094317 259.68243184 246 268 C241.16323544 276.27777121 236.35141402 284.56945061 231.5625 292.875 C230.9449585 293.94580811 230.32741699 295.01661621 229.69116211 296.11987305 C226.79146343 301.15016254 223.89466585 306.18209344 221.00354004 311.21731567 C207.44281923 334.83146102 207.44281923 334.83146102 201 345 C197.07612434 343.69204145 196.7265064 342.2626032 194.734375 338.69140625 C194.09935059 337.56508789 193.46432617 336.43876953 192.81005859 335.27832031 C192.12334904 334.03972649 191.43666348 332.80111937 190.75 331.5625 C190.03441178 330.28814911 189.3177631 329.01439317 188.60009766 327.74121094 C187.12044118 325.11525639 185.64451092 322.48726065 184.17089844 319.85791016 C180.95337862 314.12774047 177.66529972 308.43864549 174.375 302.75 C173.75850586 301.68209229 173.14201172 300.61418457 172.50683594 299.51391602 C167.78550563 291.34090374 163.03143643 283.18721957 158.26904297 275.03808594 C153.34924802 266.61402569 148.47468788 258.1643035 143.60546875 249.7109375 C139.42650872 242.4604851 135.22259494 235.22511731 131 228 C125.50054464 218.5900967 120.04550804 209.15529437 114.60546875 199.7109375 C110.42650872 192.4604851 106.22259494 185.22511731 102 178 C96.50054464 168.5900967 91.04550804 159.15529437 85.60546875 149.7109375 C81.42650872 142.4604851 77.22259494 135.22511731 73 128 C67.50054464 118.5900967 62.04550804 109.15529437 56.60546875 99.7109375 C52.42650842 92.46048459 48.22252011 85.22516137 44 78 C37.26478666 66.47317158 30.59005477 54.91198478 23.92626953 43.34375 C21.26965984 38.73222575 18.61170443 34.1214786 15.95288086 29.51123047 C14.69687102 27.33335118 13.44115061 25.15530494 12.18579102 22.97705078 C11.60885498 21.97657715 11.03191895 20.97610352 10.4375 19.9453125 C9.87804688 18.97368164 9.31859375 18.00205078 8.7421875 17.00097656 C7.5088222 14.87646335 6.26274096 12.75930869 5.0078125 10.64746094 C4.36585938 9.5649707 3.72390625 8.48248047 3.0625 7.3671875 C2.47597656 6.3860498 1.88945312 5.40491211 1.28515625 4.39404297 C0 2 0 2 0 0 Z " fill="#40B782" transform="translate(0,27)"/>
<path d="M0 0 C24.75 0 49.5 0 75 0 C79.95 8.58 84.9 17.16 90 26 C95.20505451 34.92302898 95.20505451 34.92302898 100.4140625 43.84375 C106.65217576 54.53765845 112.82306636 65.27067933 119 76 C119.66 76 120.32 76 121 76 C121.32049316 75.42894531 121.64098633 74.85789062 121.97119141 74.26953125 C128.75012729 62.20316925 135.60504511 50.18642184 142.59912109 38.2434082 C145.79970297 32.77637918 148.98641368 27.30189688 152.1484375 21.8125 C152.66426895 20.91704216 152.66426895 20.91704216 153.19052124 20.00349426 C154.86287815 17.09922164 156.53347503 14.19395289 158.20263672 11.2878418 C158.80092285 10.24797119 159.39920898 9.20810059 160.015625 8.13671875 C160.54446289 7.21592529 161.07330078 6.29513184 161.61816406 5.34643555 C162.68824811 3.52937233 163.83027964 1.75458054 165 0 C167.45465849 -0.28679046 169.6564484 -0.37873005 172.11181641 -0.34057617 C172.84362625 -0.34101425 173.5754361 -0.34145233 174.329422 -0.34190369 C176.75373815 -0.33980989 179.17736684 -0.3164519 181.6015625 -0.29296875 C183.28021873 -0.28737488 184.95887985 -0.28310379 186.63754272 -0.28010559 C191.05999222 -0.26864033 195.48214706 -0.23915891 199.90447998 -0.20599365 C204.4154461 -0.17532884 208.92645974 -0.16160795 213.4375 -0.14648438 C222.29179627 -0.11429065 231.14587365 -0.06307417 240 0 C239.0615335 1.72389692 238.12264846 3.447566 237.18359375 5.17114258 C236.66079834 6.13103592 236.13800293 7.09092926 235.59936523 8.07991028 C233.10347101 12.63686507 230.55717254 17.16471577 228 21.6875 C227.16251221 23.16899536 227.16251221 23.16899536 226.30810547 24.68041992 C221.72771395 32.76019995 217.06498549 40.79002478 212.37304688 48.80541992 C208.0526666 56.18686345 203.76795674 63.58813248 199.5 71 C194.12100102 80.33871324 188.707405 89.65640408 183.26953125 98.9609375 C178.98777878 106.29283723 174.73789061 113.64267238 170.5 121 C165.12167602 130.337214 159.70964866 139.65392777 154.27172852 148.95654297 C150.60649131 155.23170938 146.96543749 161.52027377 143.34057617 167.81884766 C140.84962509 172.14629596 138.35266837 176.4702526 135.85351562 180.79296875 C134.60329566 182.95615229 133.35463215 185.12023604 132.10742188 187.28515625 C130.30841178 190.40294016 128.49941887 193.51470486 126.6875 196.625 C126.142146 197.57391113 125.59679199 198.52282227 125.03491211 199.50048828 C124.5322583 200.35884277 124.02960449 201.21719727 123.51171875 202.1015625 C123.07303467 202.85775879 122.63435059 203.61395508 122.18237305 204.39306641 C121.79218994 204.92335449 121.40200684 205.45364258 121 206 C120.34 206 119.68 206 119 206 C118.6189209 205.33806641 118.2378418 204.67613281 117.84521484 203.99414062 C110.92595618 191.97898337 103.99622824 179.9705646 97 168 C91.50052933 158.5901056 86.045508 149.15529431 80.60546875 139.7109375 C76.42650872 132.4604851 72.22259494 125.22511731 68 118 C62.50054464 108.5900967 57.04550804 99.15529437 51.60546875 89.7109375 C47.42650872 82.4604851 43.22259494 75.22511731 39 68 C33.50916604 58.60484844 28.06104948 49.18576447 22.63183594 39.75488281 C19.45352925 34.23816733 16.26260744 28.72937288 13.046875 23.234375 C12.09071289 21.60048828 12.09071289 21.60048828 11.11523438 19.93359375 C9.90471896 17.86747844 8.69257503 15.80231608 7.47851562 13.73828125 C6.93388672 12.80886719 6.38925781 11.87945312 5.828125 10.921875 C5.3527832 10.11331055 4.87744141 9.30474609 4.38769531 8.47167969 C2.83081938 5.69866563 1.42221445 2.84442889 0 0 Z " fill="#35495E" transform="translate(80,27)"/>
</svg>
